<svg id="Layer_1" data-name="Layer 1" xmlns="http://www.w3.org/2000/svg" viewBox="0 0 51.34 8.99"><defs><style>.cls-1{fill:#448aff;}</style></defs><path d="M7.53,3H6.2a1.93,1.93,0,0,0-.29-.75,1.78,1.78,0,0,0-.51-.55,2,2,0,0,0-.67-.34,2.56,2.56,0,0,0-.79-.12,2.45,2.45,0,0,0-1.35.38,2.53,2.53,0,0,0-.94,1.11,4.2,4.2,0,0,0-.34,1.79,4.22,4.22,0,0,0,.34,1.8,2.53,2.53,0,0,0,.94,1.11,2.48,2.48,0,0,0,1.34.37,2.56,2.56,0,0,0,.79-.11,2.21,2.21,0,0,0,.67-.33A2,2,0,0,0,6.2,6H7.53a3.59,3.59,0,0,1-.41,1.18,3.51,3.51,0,0,1-.78.93,3.5,3.5,0,0,1-1.09.6A4,4,0,0,1,3.92,9a3.84,3.84,0,0,1-2-.54A3.75,3.75,0,0,1,.51,6.88,5.25,5.25,0,0,1,0,4.48a5.25,5.25,0,0,1,.51-2.4A3.74,3.74,0,0,1,1.91.54a3.78,3.78,0,0,1,2-.54,4.17,4.17,0,0,1,1.3.2A3.36,3.36,0,0,1,6.31.78a3.1,3.1,0,0,1,.79.93A3.49,3.49,0,0,1,7.53,3Zm9.16,1.52a5.29,5.29,0,0,1-.51,2.41,3.83,3.83,0,0,1-1.41,1.54,3.78,3.78,0,0,1-2,.54,3.85,3.85,0,0,1-2-.54A3.75,3.75,0,0,1,9.34,6.88a5.12,5.12,0,0,1-.52-2.4,5.12,5.12,0,0,1,.52-2.4A3.72,3.72,0,0,1,10.73.54a3.85,3.85,0,0,1,2-.54,3.73,3.73,0,0,1,3.42,2.08A5.25,5.25,0,0,1,16.69,4.48Zm-1.31,0A4.14,4.14,0,0,0,15,2.69a2.53,2.53,0,0,0-.94-1.11,2.57,2.57,0,0,0-2.69,0,2.59,2.59,0,0,0-.94,1.11,4.3,4.3,0,0,0-.34,1.79,4.38,4.38,0,0,0,.34,1.8,2.59,2.59,0,0,0,.94,1.11,2.63,2.63,0,0,0,2.69,0A2.53,2.53,0,0,0,15,6.28,4.22,4.22,0,0,0,15.38,4.48Zm10-4.36V8.85H24.16l-4.43-6.4h-.08v6.4H18.33V.12h1.22L24,6.53h.08V.12Zm6.68,2.29a1.25,1.25,0,0,0-.56-.94,2.18,2.18,0,0,0-1.24-.33,2.21,2.21,0,0,0-.93.17,1.37,1.37,0,0,0-.61.46,1.09,1.09,0,0,0-.22.66,1,1,0,0,0,.15.54,1.41,1.41,0,0,0,.39.38,3.58,3.58,0,0,0,.52.25c.18.06.36.12.53.16l.85.22a6.14,6.14,0,0,1,.86.28,3.25,3.25,0,0,1,.81.46,2.29,2.29,0,0,1,.61.7,2.15,2.15,0,0,1,.23,1,2.35,2.35,0,0,1-.38,1.32A2.54,2.54,0,0,1,32,8.66a4.76,4.76,0,0,1-3.43,0A2.61,2.61,0,0,1,27.4,7.8,2.6,2.6,0,0,1,27,6.43h1.32a1.3,1.3,0,0,0,.31.79,1.61,1.61,0,0,0,.69.47,2.79,2.79,0,0,0,.93.15,2.59,2.59,0,0,0,1-.18,1.7,1.7,0,0,0,.69-.49,1.23,1.23,0,0,0,.25-.75.93.93,0,0,0-.22-.63,1.68,1.68,0,0,0-.6-.41,4.83,4.83,0,0,0-.84-.29l-1-.28A4,4,0,0,1,27.79,4a1.91,1.91,0,0,1-.61-1.46,2.18,2.18,0,0,1,.41-1.32A2.55,2.55,0,0,1,28.7.32,3.81,3.81,0,0,1,30.28,0a3.65,3.65,0,0,1,1.56.31,2.62,2.62,0,0,1,1.07.86,2.07,2.07,0,0,1,.41,1.24Zm2.54-1.16V.12h6.75V1.25H38.62v7.6H37.3V1.25Z" transform="translate(0 0)"/><path class="cls-1" d="M44.15.12V8.85H42.83V.12Zm1.92,8.73V.12h1.31V7.71h4V8.85Z" transform="translate(0 0)"/></svg>