<svg width="52" height="9" viewBox="0 0 52 9" fill="none" xmlns="http://www.w3.org/2000/svg">
<g clip-path="url(#clip0_982_7469)">
<path d="M7.53001 3H6.20001C6.15707 2.73241 6.05826 2.47687 5.91001 2.25C5.781 2.03252 5.60714 1.84503 5.40001 1.7C5.20016 1.54536 4.97282 1.42999 4.73001 1.36C4.47458 1.27889 4.208 1.2384 3.94001 1.24C3.46259 1.23241 2.99337 1.36449 2.59001 1.62C2.17478 1.89001 1.84793 2.27596 1.65001 2.73C1.40706 3.2946 1.291 3.90564 1.31001 4.52C1.29018 5.13766 1.40625 5.75213 1.65001 6.32C1.84793 6.77403 2.17478 7.15999 2.59001 7.43C2.99227 7.67856 3.4572 7.80694 3.93001 7.8C4.19747 7.80483 4.46404 7.76772 4.72001 7.69C4.96045 7.61881 5.18701 7.50721 5.39001 7.36C5.61046 7.20036 5.79601 6.9974 5.93528 6.76355C6.07456 6.52969 6.16464 6.26988 6.20001 6H7.53001C7.46335 6.41427 7.32458 6.81365 7.12001 7.18C6.91599 7.53294 6.65204 7.84765 6.34001 8.11C6.01543 8.37349 5.64626 8.5767 5.25001 8.71C4.8265 8.88195 4.37665 8.98003 3.92001 9C3.21646 9.00662 2.52462 8.81982 1.92001 8.46C1.30797 8.07973 0.818452 7.53119 0.510008 6.88C0.15283 6.13151 -0.0219421 5.30905 8.37538e-06 4.48C-0.0219421 3.65095 0.15283 2.82849 0.510008 2.08C0.821568 1.44454 1.30703 0.910531 1.91001 0.539999C2.51338 0.177264 3.20606 -0.00976017 3.91001 -1.1978e-06C4.35119 -0.00252527 4.78998 0.064981 5.21001 0.199999C5.60957 0.323205 5.98262 0.519906 6.31001 0.779999C6.63236 1.0346 6.90089 1.35072 7.10001 1.71C7.32653 2.10765 7.47264 2.54596 7.53001 3ZM16.69 4.52C16.712 5.35227 16.5373 6.17799 16.18 6.93C15.8617 7.56401 15.3736 8.09716 14.77 8.47C14.1666 8.83273 13.474 9.01976 12.77 9.01C12.0665 9.01611 11.3748 8.82935 10.77 8.47C10.1491 8.09002 9.65225 7.53756 9.34001 6.88C8.97455 6.13403 8.79608 5.31034 8.82001 4.48C8.79608 3.64966 8.97455 2.82597 9.34001 2.08C9.64794 1.44524 10.13 0.911139 10.73 0.539999C11.3348 0.18065 12.0265 -0.00611153 12.73 -1.1978e-06C13.4388 -0.0141472 14.1369 0.173992 14.7427 0.542376C15.3484 0.91076 15.8365 1.44413 16.15 2.08C16.5175 2.82594 16.7026 3.64852 16.69 4.48V4.52ZM15.38 4.52C15.3945 3.88901 15.2645 3.26306 15 2.69C14.8021 2.23596 14.4752 1.85001 14.06 1.58C13.6554 1.3315 13.1898 1.19995 12.715 1.19995C12.2402 1.19995 11.7746 1.3315 11.37 1.58C10.9571 1.85261 10.6309 2.2378 10.43 2.69C10.1901 3.25553 10.0742 3.8659 10.09 4.48C10.0752 5.09726 10.1911 5.71067 10.43 6.28C10.6309 6.73219 10.9571 7.11738 11.37 7.39C11.7769 7.63213 12.2415 7.75994 12.715 7.75994C13.1885 7.75994 13.6531 7.63213 14.06 7.39C14.4752 7.11999 14.8021 6.73403 15 6.28C15.2575 5.71525 15.3873 5.10064 15.38 4.48V4.52ZM25.38 0.159999V8.85H24.16L19.73 2.45H19.65V8.85H18.33V0.119999H19.55L24 6.53H24.08V0.119999L25.38 0.159999ZM32.06 2.45C32.0441 2.26111 31.9853 2.07832 31.8883 1.91547C31.7913 1.75262 31.6585 1.61396 31.5 1.51C31.1291 1.27809 30.6971 1.16311 30.26 1.18C29.9414 1.16892 29.6241 1.22691 29.33 1.35C29.0872 1.44239 28.8756 1.60192 28.72 1.81C28.5765 2.00006 28.4993 2.23187 28.5 2.47C28.4975 2.66062 28.5496 2.84798 28.65 3.01C28.7541 3.1608 28.8866 3.28988 29.04 3.39C29.2063 3.48719 29.3802 3.57079 29.56 3.64C29.74 3.7 29.92 3.76 30.09 3.8L30.94 4.02C31.2332 4.09206 31.5206 4.18565 31.8 4.3C32.0907 4.41364 32.3635 4.56857 32.61 4.76C32.859 4.94923 33.0666 5.18746 33.22 5.46C33.3763 5.76988 33.4552 6.11299 33.45 6.46C33.4576 6.92802 33.3253 7.38766 33.07 7.78C32.8018 8.16681 32.4313 8.47148 32 8.66C30.8964 9.08625 29.6736 9.08625 28.57 8.66C28.1065 8.48978 27.7008 8.19157 27.4 7.8C27.1415 7.38958 27.0029 6.91504 27 6.43H28.32C28.3321 6.7206 28.4412 6.99876 28.63 7.22C28.8147 7.43461 29.0527 7.59673 29.32 7.69C29.6193 7.79235 29.9337 7.84307 30.25 7.84C30.592 7.84661 30.9318 7.78544 31.25 7.66C31.5176 7.55744 31.755 7.38888 31.94 7.17C32.1036 6.95432 32.1915 6.6907 32.19 6.42C32.1971 6.19001 32.1188 5.96555 31.97 5.79C31.8023 5.61119 31.5975 5.47125 31.37 5.38C31.0995 5.25772 30.8183 5.16065 30.53 5.09L29.53 4.81C28.8929 4.68521 28.2957 4.40721 27.79 4C27.5899 3.81436 27.4319 3.58799 27.3267 3.33614C27.2215 3.08429 27.1715 2.81281 27.18 2.54C27.1699 2.06717 27.3138 1.60388 27.59 1.22C27.8667 0.820337 28.2518 0.508074 28.7 0.319999C29.1978 0.101857 29.7365 -0.00725203 30.28 -1.1978e-06C30.8165 -0.0125977 31.3491 0.0932482 31.84 0.309999C32.2668 0.49647 32.6361 0.793327 32.91 1.17C33.1769 1.52826 33.3207 1.96325 33.32 2.41L32.06 2.45ZM34.6 1.29V0.119999H41.35V1.25H38.62V8.85H37.3V1.25L34.6 1.29Z" fill="white"/>
<path d="M44.15 0.119995V8.85H42.83V0.119995H44.15ZM46.07 8.85V0.119995H47.38V7.71H51.38V8.85H46.07Z" fill="white"/>
</g>
<defs>
<clipPath id="clip0_982_7469">
<rect width="51.34" height="8.99" fill="white"/>
</clipPath>
</defs>
</svg>
